# xmcd
#
# Track frame offsets: 
#        150
#        23210
#        45048
#        66125
#        85088
#        111518
#        130085
#        154025
#        174223
#        197825
#        217303
#        235378
#
# Disc length: 3427 seconds
#
# Revision: 1
# Processed by: cddbd v1.5.2PL0 Copyright (c) Steve Scherf et al.
# Submitted via: ExactAudioCopy v1.0b3
#
DISCID=9e0d610c
DTITLE=Various Artist - Huong Ca Vo Tan
DYEAR=1988
DGENRE=
TTITLE0=Huong Lan - Tam su voi anh
TTITLE1=Thanh Phong - Loi ke dang trinh
TTITLE2=Thanh Thuyen - Gian nhau mot tuan
TTITLE3=Tuan Vu - Kho pho ngay xua
TTITLE4=Huong Lan, Thanh Phong - Huong ca vo tan
TTITLE5=Tuan Vu - Tinh co
TTITLE6=Thanh Tuyen - Chuyen nguoi con gai hai sim
TTITLE7=Tuan Vu - Mot lan dang do
TTITLE8=Huong Lan - Noi long nguoi di
TTITLE9=Thanh Phong - Tinh ban Quang Trung
TTITLE10=Tuan Vu - Mau chay ve tim
TTITLE11=Thanh Tuyen, Thanh Phong - Nguoi tinh va que huong
EXTD=
EXTT0=
EXTT1=
EXTT2=
EXTT3=
EXTT4=
EXTT5=
EXTT6=
EXTT7=
EXTT8=
EXTT9=
EXTT10=
EXTT11=
PLAYORDER=
